<svg width="14" height="12" viewBox="0 0 14 12" fill="none" xmlns="http://www.w3.org/2000/svg">
<path d="M12.7898 8.28112L8.34889 0.916328C8.16932 0.63541 7.92191 0.404222 7.62948 0.244081C7.33705 0.0839402 7.00901 0 6.6756 0C6.34219 0 6.01415 0.0839402 5.72172 0.244081C5.42929 0.404222 5.18188 0.63541 5.00231 0.916328L0.561429 8.28112C0.404553 8.54263 0.319288 8.84083 0.314206 9.14573C0.309124 9.45064 0.384405 9.75151 0.53248 10.0181C0.703676 10.3182 0.951474 10.5674 1.25055 10.7403C1.54962 10.9133 1.88925 11.0037 2.23472 11.0024H11.1165C11.4597 11.0061 11.7978 10.9191 12.0966 10.7504C12.3955 10.5816 12.6446 10.337 12.8187 10.0413C12.9711 9.7719 13.0488 9.46671 13.0437 9.15725C13.0386 8.8478 12.951 8.54532 12.7898 8.28112ZM6.6756 8.68642C6.56108 8.68642 6.44914 8.65246 6.35393 8.58884C6.25871 8.52522 6.1845 8.43479 6.14068 8.329C6.09686 8.2232 6.08539 8.10678 6.10773 7.99447C6.13007 7.88215 6.18521 7.77899 6.26619 7.69801C6.34716 7.61704 6.45033 7.5619 6.56264 7.53956C6.67496 7.51722 6.79137 7.52868 6.89717 7.5725C7.00297 7.61633 7.09339 7.69054 7.15701 7.78575C7.22063 7.88097 7.25459 7.99291 7.25459 8.10742C7.25459 8.26098 7.19359 8.40825 7.08501 8.51684C6.97643 8.62542 6.82916 8.68642 6.6756 8.68642ZM7.25459 6.37044C7.25459 6.524 7.19359 6.67127 7.08501 6.77985C6.97643 6.88844 6.82916 6.94944 6.6756 6.94944C6.52204 6.94944 6.37477 6.88844 6.26619 6.77985C6.15761 6.67127 6.0966 6.524 6.0966 6.37044V4.05447C6.0966 3.90091 6.15761 3.75364 6.26619 3.64506C6.37477 3.53648 6.52204 3.47548 6.6756 3.47548C6.82916 3.47548 6.97643 3.53648 7.08501 3.64506C7.19359 3.75364 7.25459 3.90091 7.25459 4.05447V6.37044Z" fill="white"/>
</svg>
