<svg width="30" height="27" viewBox="0 0 30 27" fill="none" xmlns="http://www.w3.org/2000/svg">
<path d="M1 22.0481C0.447715 22.0481 0 22.4958 0 23.0481C0 23.6004 0.447715 24.0481 1 24.0481V22.0481ZM5.73488 24.0481C6.28717 24.0481 6.73488 23.6004 6.73488 23.0481C6.73488 22.4958 6.28717 22.0481 5.73488 22.0481V24.0481ZM24.6159 22.0481C24.0636 22.0481 23.6159 22.4958 23.6159 23.0481C23.6159 23.6004 24.0636 24.0481 24.6159 24.0481V22.0481ZM29 13.1827H30C30 12.6304 29.5523 12.1827 29 12.1827V13.1827ZM15.906 13.1827H14.906C14.906 13.735 15.3537 14.1827 15.906 14.1827V13.1827ZM15.906 1.875H16.906C16.906 1.32272 16.4583 0.875 15.906 0.875V1.875ZM4.50723 0.875C3.95495 0.875 3.50723 1.32272 3.50723 1.875C3.50723 2.42728 3.95495 2.875 4.50723 2.875V0.875ZM22.0438 3.49042L22.8579 2.90963C22.6702 2.64657 22.367 2.49042 22.0438 2.49042V3.49042ZM4.09793 5.31729C3.54565 5.31729 3.09793 5.765 3.09793 6.31729C3.09793 6.86957 3.54565 7.31729 4.09793 7.31729V5.31729ZM11.4048 7.31729C11.9571 7.31729 12.4048 6.86957 12.4048 6.31729C12.4048 5.765 11.9571 5.31729 11.4048 5.31729V7.31729ZM2.28591 9.87507C1.73362 9.87507 1.28591 10.3228 1.28591 10.8751C1.28591 11.4274 1.73362 11.8751 2.28591 11.8751V9.87507ZM9.59281 11.8751C10.1451 11.8751 10.5928 11.4274 10.5928 10.8751C10.5928 10.3228 10.1451 9.87507 9.59281 9.87507V11.8751ZM1.23368 14.4327C0.681397 14.4327 0.233682 14.8804 0.233682 15.4327C0.233682 15.985 0.681397 16.4327 1.23368 16.4327V14.4327ZM8.54059 16.4327C9.09288 16.4327 9.54059 15.985 9.54059 15.4327C9.54059 14.8804 9.09288 14.4327 8.54059 14.4327V16.4327ZM12.3988 24.0481H18.0105V22.0481H12.3988V24.0481ZM1 24.0481H5.73488V22.0481H1V24.0481ZM24.6159 24.0481H25.4927V22.0481H24.6159V24.0481ZM25.4927 24.0481C27.9616 24.0481 30 22.055 30 19.5866H28C28 20.9258 26.8818 22.0481 25.4927 22.0481V24.0481ZM30 19.5866V13.1827H28V19.5866H30ZM29 12.1827H15.906V14.1827H29V12.1827ZM16.906 13.1827V1.875H14.906V13.1827H16.906ZM15.906 0.875H4.50723V2.875H15.906V0.875ZM15.3215 4.49042H22.0438V2.49042H15.3215V4.49042ZM21.2298 4.0712L28.1859 13.8212L29.8141 12.6596L22.8579 2.90963L21.2298 4.0712ZM11.3986 22.5865C11.3986 23.8218 10.3859 24.875 9.06666 24.875V26.875C11.4886 26.875 13.3986 24.9282 13.3986 22.5865H11.3986ZM9.06666 24.875C7.73595 24.875 6.73471 23.8681 6.73471 22.5865H4.73471C4.73471 24.9973 6.65623 26.875 9.06666 26.875V24.875ZM6.73471 22.5865C6.73471 21.3513 7.74742 20.2981 9.06666 20.2981V18.2981C6.64476 18.2981 4.73471 20.2448 4.73471 22.5865H6.73471ZM9.06666 20.2981C10.3859 20.2981 11.3986 21.3513 11.3986 22.5865H13.3986C13.3986 20.2448 11.4886 18.2981 9.06666 18.2981V20.2981ZM23.6159 22.5865C23.6159 23.8218 22.6031 24.875 21.2839 24.875V26.875C23.7058 26.875 25.6159 24.9282 25.6159 22.5865H23.6159ZM21.2839 24.875C20.0001 24.875 18.9519 23.8567 18.9519 22.5865H16.9519C16.9519 25.0086 18.9435 26.875 21.2839 26.875V24.875ZM18.9519 22.5865C18.9519 21.3513 19.9647 20.2981 21.2839 20.2981V18.2981C18.862 18.2981 16.9519 20.2448 16.9519 22.5865H18.9519ZM21.2839 20.2981C22.6031 20.2981 23.6159 21.3513 23.6159 22.5865H25.6159C25.6159 20.2448 23.7058 18.2981 21.2839 18.2981V20.2981ZM4.09793 7.31729H11.4048V5.31729H4.09793V7.31729ZM2.28591 11.8751H9.59281V9.87507H2.28591V11.8751ZM1.23368 16.4327H8.54059V14.4327H1.23368V16.4327Z" fill="#137BDE"/>
</svg>
