<svg width="26" height="27" viewBox="0 0 26 27" fill="none" xmlns="http://www.w3.org/2000/svg">
<path d="M7.09674 25.8748H3.4387C2.79191 25.8748 2.17162 25.622 1.71428 25.1719C1.25693 24.7218 1 24.1114 1 23.4749V15.0749C1 14.4384 1.25693 13.828 1.71428 13.3779C2.17162 12.9278 2.79191 12.6749 3.4387 12.6749H7.09674M15.6322 10.2749V5.47498C15.6322 4.5202 15.2468 3.60454 14.5608 2.92941C13.8747 2.25428 12.9443 1.875 11.9741 1.875L7.09674 12.6749V25.8748H20.851C21.4391 25.8814 22.0098 25.6785 22.458 25.3037C22.9061 24.9288 23.2015 24.4071 23.2897 23.8349L24.9724 13.0349C25.0254 12.691 25.0019 12.3398 24.9033 12.0056C24.8047 11.6715 24.6335 11.3625 24.4016 11.1C24.1696 10.8374 23.8824 10.6277 23.5599 10.4852C23.2373 10.3428 22.8872 10.271 22.5337 10.2749H15.6322Z" stroke="#137BDE" stroke-width="2" stroke-linecap="round" stroke-linejoin="round"/>
</svg>
