<svg width="24" height="27" viewBox="0 0 24 27" fill="none" xmlns="http://www.w3.org/2000/svg">
<path d="M1 6.675L4.6 1.875H19L22.6 6.675M1 6.675V23.475C1 24.1115 1.25286 24.722 1.70294 25.1721C2.15303 25.6221 2.76348 25.875 3.4 25.875H20.2C20.8365 25.875 21.447 25.6221 21.8971 25.1721C22.3471 24.722 22.6 24.1115 22.6 23.475V6.675M1 6.675H22.6M16.6 11.475C16.6 12.748 16.0943 13.9689 15.1941 14.8691C14.2939 15.7693 13.073 16.275 11.8 16.275C10.527 16.275 9.30606 15.7693 8.40589 14.8691C7.50571 13.9689 7 12.748 7 11.475" stroke="#137BDE" stroke-width="2" stroke-linecap="round" stroke-linejoin="round"/>
</svg>
