<svg width="90" height="23" viewBox="0 0 90 23" fill="none" xmlns="http://www.w3.org/2000/svg">
<g clip-path="url(#clip0)">
<path d="M40.7995 21.3652C39.6944 21.3652 38.7415 21.0698 37.9407 20.479C37.1399 19.8882 36.5734 19.0399 36.2412 17.9341L38.6779 16.9697C38.7966 17.486 39.0418 17.9647 39.3915 18.3627C39.723 18.7278 40.1923 18.9103 40.7995 18.9103C40.9922 18.9109 41.1843 18.8886 41.3717 18.8438C41.5432 18.8043 41.7062 18.7342 41.8529 18.637C41.99 18.5433 42.1057 18.4217 42.1925 18.2802C42.2825 18.1302 42.3285 17.9579 42.3254 17.783C42.3292 17.5964 42.2892 17.4114 42.2087 17.243C42.1281 17.0746 42.0092 16.9274 41.8614 16.8133C41.6565 16.6507 41.434 16.5116 41.1982 16.3986C40.8579 16.2337 40.5092 16.0871 40.1534 15.9592L39.4237 15.6946C39.0922 15.5735 38.7732 15.4206 38.4711 15.2381C38.1448 15.0448 37.8463 14.8079 37.5839 14.5341C37.3179 14.2542 37.1006 13.9319 36.9409 13.5804C36.7712 13.203 36.6863 12.793 36.6923 12.3792C36.6893 11.9167 36.7854 11.4589 36.9741 11.0366C37.1589 10.6223 37.4304 10.2525 37.7703 9.95219C38.1357 9.63541 38.5579 9.39072 39.0144 9.23104C40.0514 8.88669 41.1707 8.87807 42.2129 9.2064C42.6201 9.34709 43.0011 9.55459 43.3402 9.82039C43.6352 10.052 43.8855 10.3356 44.0785 10.6573C44.2483 10.9409 44.3897 11.2406 44.5006 11.552L42.2633 12.4971C42.1555 12.1618 41.9539 11.8643 41.6825 11.6399C41.3883 11.4154 41.0245 11.3016 40.6549 11.3184C40.2134 11.3184 39.8627 11.4095 39.6026 11.5916C39.483 11.666 39.3844 11.7697 39.3161 11.8929C39.2478 12.0162 39.2122 12.1548 39.2126 12.2956C39.2157 12.4496 39.2531 12.601 39.322 12.7387C39.391 12.8764 39.4898 12.9971 39.6112 13.0918C39.8762 13.3233 40.3459 13.5554 41.0203 13.7883L41.7489 14.0369C42.7555 14.3784 43.5348 14.837 44.087 15.4128C44.6392 15.9885 44.9153 16.7622 44.9153 17.7337C44.9295 18.2925 44.8011 18.8456 44.5424 19.341C44.3047 19.781 43.9759 20.1653 43.5781 20.4683C43.1796 20.7697 42.7303 20.9973 42.2515 21.1402C41.7813 21.2865 41.292 21.3623 40.7995 21.3652Z" fill="#192631"/>
<path d="M54.3438 19.1282C53.9692 19.7994 53.4301 20.3643 52.7772 20.7698C52.13 21.167 51.3481 21.3656 50.4316 21.3656C49.8331 21.3719 49.2389 21.2628 48.6817 21.0441C48.1602 20.8377 47.6844 20.5308 47.2812 20.1408C46.8825 19.7522 46.5668 19.2867 46.3533 18.7724C46.1265 18.2233 46.0135 17.6338 46.0211 17.0398C46.0194 16.4754 46.129 15.9162 46.3436 15.3943C46.5582 14.8723 46.8735 14.3977 47.2716 13.9977C47.6682 13.6024 48.1352 13.2847 48.6485 13.0611C49.189 12.8254 49.7733 12.7067 50.363 12.7129C50.974 12.7002 51.5811 12.8125 52.1471 13.0429C52.6364 13.2472 53.0753 13.5559 53.433 13.9473C53.7808 14.3386 54.0454 14.7965 54.2109 15.2932C54.3904 15.8243 54.4799 16.3816 54.4756 16.9423C54.4756 17.0312 54.4756 17.1191 54.4681 17.2069C54.4634 17.2848 54.4548 17.3624 54.4424 17.4395C54.4321 17.5104 54.4267 17.582 54.4263 17.6538H48.4417C48.5639 18.1838 48.8139 18.5706 49.1918 18.8142C49.5669 19.057 50.0052 19.1837 50.4519 19.1786C50.8568 19.1947 51.2575 19.0911 51.6038 18.8807C51.902 18.6879 52.1493 18.4262 52.325 18.1177L54.3438 19.1282ZM52.1385 15.9618C52.1093 15.8114 52.0561 15.6667 51.981 15.5332C51.8929 15.3697 51.7748 15.2243 51.6328 15.1046C51.4697 14.9697 51.2849 14.8636 51.0863 14.7906C50.8557 14.7045 50.6112 14.662 50.3651 14.6652C49.9664 14.6647 49.5776 14.7892 49.2533 15.0212C48.929 15.2532 48.6856 15.581 48.5574 15.9586L52.1385 15.9618Z" fill="#192631"/>
<path d="M63.8421 19.0272C63.4715 19.7261 62.9258 20.3169 62.2584 20.7416C61.6005 21.1567 60.8022 21.3638 59.8635 21.3631C59.2653 21.3696 58.6715 21.2604 58.1147 21.0417C57.596 20.8377 57.1226 20.5332 56.7217 20.1459C56.3253 19.759 56.0146 19.2932 55.8099 18.7786C55.3798 17.6579 55.3798 16.4178 55.8099 15.2971C56.015 14.7827 56.3256 14.3169 56.7217 13.9298C57.1226 13.5428 57.596 13.2388 58.1147 13.0351C58.6715 12.8164 59.2653 12.7072 59.8635 12.7136C60.7922 12.7136 61.5905 12.918 62.2584 13.3266C62.9158 13.7235 63.4342 14.3141 63.7425 15.0175L61.4515 15.9776C61.3021 15.6884 61.0807 15.4426 60.8086 15.2639C60.519 15.0991 60.1889 15.0189 59.856 15.0325C59.6061 15.0249 59.3574 15.0685 59.125 15.1606C58.8926 15.2528 58.6816 15.3915 58.5048 15.5682C58.1476 15.9254 57.969 16.4144 57.969 17.0352C57.969 17.656 58.1476 18.1449 58.5048 18.5021C58.815 18.7924 59.2096 18.9763 59.6315 19.027C60.0533 19.0777 60.4803 18.9925 60.8504 18.7839C61.1419 18.5964 61.3815 18.3385 61.5469 18.0339L63.8421 19.0272Z" fill="#192631"/>
<path d="M70.7739 20.0712H70.6078C70.0556 20.9328 69.227 21.3635 68.1218 21.3635C67.1046 21.3635 66.3474 21.0378 65.8502 20.3863C65.353 19.7348 65.103 18.8775 65.1001 17.8146V12.9766H67.5871V17.5349C67.5706 17.9214 67.6813 18.3027 67.9022 18.6204C68.1111 18.9022 68.438 19.049 68.8794 19.049C69.4431 19.049 69.8717 18.8347 70.1653 18.4061C70.4589 17.9774 70.6053 17.4138 70.6046 16.7152V12.9766H73.0917V21.0988H70.7739V20.0712Z" fill="#192631"/>
<path d="M74.9526 12.9783H77.2736V14.0069H77.4397C77.679 13.634 78.0014 13.3215 78.3816 13.094C78.789 12.8401 79.2603 12.7078 79.7403 12.7125C80.004 12.7067 80.2669 12.7429 80.5193 12.8197C80.7085 12.8803 80.8901 12.9626 81.0604 13.065L80.4175 15.2821C80.2726 15.2044 80.1195 15.1433 79.961 15.0999C79.7576 15.0509 79.5487 15.0286 79.3395 15.0335C78.7202 15.0335 78.2476 15.2478 77.9219 15.6764C77.5961 16.105 77.4333 16.6686 77.4333 17.3673V21.1005H74.9526V12.9783Z" fill="#192631"/>
<path d="M89.4186 19.1282C89.044 19.7994 88.5049 20.3643 87.852 20.7698C87.2048 21.167 86.4229 21.3656 85.5064 21.3656C84.9082 21.3721 84.3144 21.2629 83.7576 21.0442C83.2356 20.838 82.7594 20.5311 82.3561 20.1408C81.9573 19.7523 81.6416 19.2867 81.4281 18.7725C81.2025 18.2234 81.0899 17.6345 81.097 17.0409C81.0946 16.4763 81.2037 15.9169 81.4181 15.3947C81.6325 14.8724 81.948 14.3977 82.3464 13.9977C82.7426 13.6024 83.2092 13.2848 83.7223 13.0612C84.2628 12.8254 84.8471 12.7067 85.4367 12.7129C86.0484 12.6999 86.6563 12.8122 87.223 13.043C87.7123 13.2473 88.1511 13.5559 88.5088 13.9473C88.8567 14.3386 89.1213 14.7965 89.2868 15.2932C89.4663 15.8243 89.5558 16.3817 89.5515 16.9423C89.5515 17.0312 89.5514 17.1191 89.5439 17.207C89.5393 17.2849 89.5307 17.3625 89.5182 17.4395C89.508 17.5105 89.5026 17.5821 89.5022 17.6538H83.5176C83.6398 18.1839 83.8898 18.5707 84.2677 18.8143C84.6427 19.0571 85.0811 19.1838 85.5278 19.1786C85.9327 19.1947 86.3334 19.0911 86.6797 18.8807C86.9779 18.688 87.2252 18.4263 87.4009 18.1178L89.4186 19.1282ZM87.2144 15.9618C87.1852 15.8115 87.132 15.6668 87.0569 15.5332C86.9688 15.3697 86.8506 15.2243 86.7087 15.1046C86.5456 14.9698 86.3608 14.8636 86.1622 14.7906C85.9317 14.7044 85.6871 14.6619 85.441 14.6653C85.0416 14.6642 84.652 14.7889 84.3274 15.0216C84.0027 15.2543 83.7595 15.5832 83.6323 15.9618H87.2144Z" fill="#192631"/>
<path d="M35.0649 15.282C34.8687 14.7758 34.5778 14.3117 34.2076 13.9147C33.8547 13.5374 33.4289 13.2355 32.9561 13.0274C32.4866 12.8186 31.9783 12.7113 31.4645 12.7124C30.868 12.7124 30.3736 12.8256 29.9815 13.0521C29.6242 13.2447 29.3238 13.5278 29.1103 13.8729L29.1039 12.7606L29.1103 12.7124V9.23096H26.6265V21.0993H28.9485V20.2046H29.1135C29.3264 20.5502 29.627 20.8334 29.9847 21.0254C30.3761 21.2526 30.8705 21.3658 31.4677 21.3651C31.9815 21.3662 32.4898 21.2589 32.9593 21.0501C33.4319 20.842 33.8576 20.5406 34.2108 20.1639C34.5808 19.7667 34.8717 19.3027 35.0681 18.7966C35.2831 18.236 35.3896 17.6397 35.382 17.0393C35.3888 16.4387 35.2812 15.8423 35.0649 15.282ZM32.7342 17.8762C32.6367 18.1137 32.4907 18.3283 32.3056 18.5062C32.1226 18.6773 31.9088 18.8122 31.6756 18.9038C31.1903 19.0924 30.6521 19.0924 30.1668 18.9038C29.9341 18.812 29.7207 18.6771 29.5378 18.5062C29.3524 18.3286 29.2064 18.1139 29.1092 17.8762C29.0014 17.6105 28.9482 17.3259 28.9528 17.0393C28.9474 16.7554 29.0007 16.4734 29.1092 16.211C29.209 15.9744 29.3547 15.7599 29.5378 15.5798C29.7173 15.4047 29.9296 15.2667 30.1626 15.1737C30.6478 14.9851 31.1861 14.9851 31.6713 15.1737C31.9077 15.2654 32.1234 15.4035 32.3056 15.5798C32.4884 15.7601 32.6341 15.9746 32.7342 16.211C32.8423 16.4735 32.8955 16.7554 32.8907 17.0393C32.8948 17.3259 32.8416 17.6104 32.7342 17.8762Z" fill="#192631"/>
<path d="M0.725098 15.3807V17.7691C0.765742 18.4477 0.982007 19.1041 1.3527 19.674C2.07676 20.7479 3.26919 21.3511 4.6069 21.3511H15.4306C19.0172 21.3511 21.9263 18.4188 21.9263 14.802C21.9263 11.1851 19.0207 8.261 15.4341 8.261H13.8221V8.3563V8.261V6.73733C13.8221 3.14724 10.891 0.241699 7.27419 0.241699C3.65737 0.241699 0.725098 3.14724 0.725098 6.73733V15.3807ZM2.96934 16.1199V6.73733C2.96934 5.59592 3.42276 4.50126 4.22986 3.69416C5.03696 2.88706 6.13162 2.43364 7.27303 2.43364C8.41444 2.43364 9.5091 2.88706 10.3162 3.69416C11.1233 4.50126 11.5767 5.59592 11.5767 6.73733V8.35049H5.76564V12.5926C5.76564 13.1219 5.86989 13.646 6.07244 14.135C6.275 14.624 6.57189 15.0684 6.94616 15.4426C7.32044 15.8169 7.76476 16.1138 8.25377 16.3163C8.74279 16.5189 9.2669 16.6232 9.79621 16.6232C10.3255 16.6232 10.8496 16.5189 11.3386 16.3163C11.8277 16.1138 12.272 15.8169 12.6463 15.4426C13.0205 15.0684 13.3174 14.624 13.52 14.135C13.7225 13.646 13.8268 13.1219 13.8268 12.5926V10.5006H15.4388C16.58 10.5006 17.6745 10.954 18.4815 11.7609C19.2885 12.5679 19.7419 13.6624 19.7419 14.8037C19.7419 15.945 19.2885 17.0395 18.4815 17.8465C17.6745 18.6535 16.58 19.1068 15.4388 19.1068H5.58665C4.76497 19.1068 3.87471 19.2626 3.29825 18.5373C3.11968 18.2995 3.00667 18.019 2.9705 17.7238L2.96934 16.1199ZM11.5779 10.4994V12.3904C11.566 12.8591 11.3714 13.3047 11.0356 13.6321C10.6998 13.9594 10.2494 14.1426 9.78052 14.1426C9.31159 14.1426 8.86121 13.9594 8.52544 13.6321C8.18967 13.3047 7.99507 12.8591 7.98315 12.3904V10.4994H11.5779Z" fill="url(#paint0_linear)"/>
<path d="M11.5779 8.35107H10.511V10.5H11.5779V8.35107Z" fill="#134DDE"/>
<path d="M26.6296 1.33955V7.18506H27.853V5.37024H29.0075C30.239 5.37024 31.0937 4.5641 31.0937 3.36097C31.0937 2.14569 30.2714 1.33955 29.0682 1.33955H26.6296ZM27.853 2.34418H28.7442C29.449 2.34418 29.8501 2.70067 29.8501 3.36502C29.8501 4.02127 29.4409 4.37776 28.7401 4.37776H27.853V2.34418ZM34.776 1.18966C33.0584 1.18966 31.9606 2.36444 31.9606 4.26028C31.9606 6.15612 33.0422 7.33494 34.776 7.33494C36.5058 7.33494 37.5833 6.15612 37.5833 4.26028C37.5833 2.36849 36.5017 1.18966 34.776 1.18966ZM34.776 2.26316C35.728 2.26316 36.3356 3.03689 36.3356 4.26028C36.3356 5.47961 35.728 6.26144 34.776 6.26144C33.8159 6.26144 33.2124 5.47961 33.2124 4.26028C33.2124 3.03689 33.8281 2.26316 34.776 2.26316ZM41.9826 3.31641H42.0475L43.1534 7.18506H44.2998L45.8513 1.33955H44.5874L43.684 5.45936H43.6192L42.5336 1.33955H41.5006L40.4352 5.45936H40.3704L39.4589 1.33955H38.1869L39.7344 7.18506H40.8889L41.9826 3.31641ZM50.7894 6.13992H48.1401V4.71803H50.6395V3.74986H48.1401V2.38469H50.7894V1.33955H46.9167V7.18506H50.7894V6.13992ZM53.301 2.32798H54.3623C54.97 2.32798 55.3508 2.67636 55.3508 3.23134C55.3508 3.79442 54.9902 4.1266 54.3745 4.1266H53.301V2.32798ZM53.301 5.06642H54.3016L55.3913 7.18506H56.7767L55.5452 4.87602C56.2177 4.60866 56.6065 3.96051 56.6065 3.21513C56.6065 2.05251 55.8166 1.33955 54.5325 1.33955H52.0776V7.18506H53.301V5.06642ZM61.7107 6.13992H59.0614V4.71803H61.5608V3.74986H59.0614V2.38469H61.7107V1.33955H57.838V7.18506H61.7107V6.13992ZM62.9989 1.3355V7.18506H65.2999C67.0499 7.18506 68.0424 6.11966 68.0424 4.21977C68.0424 2.38874 67.0377 1.3355 65.2999 1.3355H62.9989ZM64.2223 2.38064H65.1054C66.1668 2.38064 66.7947 3.05715 66.7947 4.24002C66.7947 5.47556 66.187 6.13992 65.1054 6.13992H64.2223V2.38064ZM73.9608 7.18506C75.2085 7.18506 75.9822 6.53691 75.9822 5.51202C75.9822 4.75854 75.4191 4.17521 74.6454 4.1185V4.04558C75.2449 3.95646 75.7027 3.41768 75.7027 2.79789C75.7027 1.89453 75.0262 1.33955 73.8919 1.33955H71.3358V7.18506H73.9608ZM72.5592 2.27532H73.58C74.1633 2.27532 74.4996 2.55483 74.4996 3.02069C74.4996 3.4906 74.139 3.76201 73.4787 3.76201H72.5592V2.27532ZM72.5592 6.24929V4.5884H73.6205C74.3416 4.5884 74.7345 4.87197 74.7345 5.40669C74.7345 5.95357 74.3537 6.24929 73.6489 6.24929H72.5592ZM79.7698 7.18506V5.03401L81.8034 1.33955H80.4787L79.1946 3.78632H79.1217L77.8335 1.33955H76.5088L78.5464 5.03401V7.18506H79.7698Z" fill="#137BDE"/>
</g>
<defs>
<linearGradient id="paint0_linear" x1="0.725098" y1="10.797" x2="21.9298" y2="10.797" gradientUnits="userSpaceOnUse">
<stop stop-color="#134DDE"/>
<stop offset="1" stop-color="#137BDE"/>
</linearGradient>
<clipPath id="clip0">
<rect width="88.9379" height="21.9058" fill="white" transform="translate(0.694824 0.13623)"/>
</clipPath>
</defs>
</svg>
